<svg width="24" height="24" viewBox="0 0 24 24" fill="none" xmlns="http://www.w3.org/2000/svg">
<path d="M22.5001 12.2331C22.5001 11.3701 22.4301 10.7401 22.2741 10.0861H12.2141V13.9831H18.1201C18.0001 14.9511 17.3581 16.4101 15.9301 17.3901L15.9101 17.5201L19.0901 19.9351L19.3101 19.9561C21.3341 18.1251 22.5001 15.4301 22.5001 12.2331Z" fill="#4285F4"/>
<path d="M12.2141 22.5C15.1071 22.5 17.5351 21.567 19.3091 19.957L15.9291 17.39C15.0241 18.008 13.8091 18.44 12.2141 18.44C10.8698 18.4401 9.55921 18.0195 8.46614 17.237C7.37306 16.4545 6.55233 15.3496 6.11907 14.077L5.99307 14.087L2.68607 16.595L2.64307 16.713C4.40407 20.143 8.02307 22.5 12.2141 22.5Z" fill="#34A853"/>
<path d="M6.11993 14.077C5.88672 13.4092 5.76673 12.7072 5.76493 12C5.76493 11.277 5.89493 10.577 6.10993 9.92296L6.10393 9.78396L2.75493 7.23596L2.64493 7.28596C1.89585 8.74451 1.50442 10.3603 1.50293 12C1.50293 13.692 1.91993 15.29 2.64593 16.713L6.12193 14.077H6.11993Z" fill="#FBBC05"/>
<path d="M12.2141 5.56C14.2261 5.56 15.5831 6.412 16.3571 7.123L19.3801 4.23C17.5231 2.538 15.1061 1.5 12.2131 1.5C8.02309 1.5 4.40309 3.857 2.64209 7.287L6.10609 9.923C6.54351 8.65074 7.36695 7.54663 8.46164 6.76456C9.55633 5.98248 10.8687 5.5614 12.2141 5.56Z" fill="#EB4335"/>
</svg>
